<svg width="116" height="116" viewBox="0 0 116 116" fill="none" xmlns="http://www.w3.org/2000/svg">
<path d="M58.0049 0.5C71.1792 0.5 81.8592 11.1799 81.8592 24.3542H34.1508C34.1508 11.1799 44.8306 0.5 58.0049 0.5Z" fill="#98C3F8"/>
<path d="M29.373 57.75C29.373 41.9408 42.1888 29.125 57.998 29.125C73.8073 29.125 86.623 41.9408 86.623 57.75C86.623 73.5592 73.8073 86.375 57.998 86.375C42.1888 86.375 29.373 73.5592 29.373 57.75Z" fill="#255BE0"/>
<path d="M24.6042 33.8958C11.4299 33.8958 0.75 44.5756 0.75 57.7499C0.75 70.9242 11.4299 81.6042 24.6042 81.6042V33.8958Z" fill="#98C3F8"/>
<path d="M115.25 57.7499C115.25 70.9242 104.57 81.6042 91.3959 81.6042V33.8958C104.57 33.8958 115.25 44.5756 115.25 57.7499Z" fill="#2541A8"/>
<path d="M34.1508 91.1471C34.1508 104.321 44.8306 115.001 58.0049 115.001C71.1792 115.001 81.8592 104.321 81.8592 91.1471H34.1508Z" fill="#2541A8"/>
<path d="M91.3959 10.0415C99.3007 10.0415 105.708 16.4494 105.708 24.354H91.3959V10.0415Z" fill="#4480ED"/>
<path d="M91.3959 105.458C99.3007 105.458 105.708 99.0505 105.708 91.1458H91.3959V105.458Z" fill="#233B85"/>
<path d="M10.2947 24.3539C10.2947 16.4493 16.7026 10.0414 24.6072 10.0414V24.3539H10.2947Z" fill="#C2DAFB"/>
<path d="M10.2947 91.1471C10.2947 99.0519 16.7026 105.46 24.6072 105.46V91.1471H10.2947Z" fill="#4480ED"/>
</svg>
