<svg width="224" height="40" viewBox="0 0 224 40" fill="none" xmlns="http://www.w3.org/2000/svg">
<path d="M64.8123 8.24834C71.0468 8.24834 75.6453 12.4612 75.6453 19.8226C75.6453 26.7406 71.0468 31.3969 64.8123 31.3969C61.0097 31.3969 58.4452 29.8448 57.0745 27.6718V40H53.4488V8.51441H56.5881L57.0745 12.1508C58.5778 10.0665 61.0097 8.24834 64.8123 8.24834ZM64.4586 28.1596C68.9245 28.1596 71.9312 24.745 71.9312 19.8226C71.9312 14.9002 68.9245 11.4856 64.4586 11.4856C60.037 11.4856 57.0303 14.9002 57.0303 19.7339C57.0303 24.7007 60.037 28.1596 64.4586 28.1596Z" fill="white"/>
<path d="M90.2236 8.51441H91.2405V12.0621H89.4277C84.6965 12.0621 83.4143 16.0089 83.4143 19.6009V31.1308H79.7885V8.51441H82.9279L83.4143 11.929C84.4755 10.1996 86.1999 8.51441 90.2236 8.51441Z" fill="white"/>
<path d="M96.2404 4.70067C94.9139 4.70067 93.897 3.72506 93.897 2.35033C93.897 0.975611 94.9139 0 96.2404 0C97.5669 0 98.5839 0.975611 98.5839 2.35033C98.5839 3.72506 97.5669 4.70067 96.2404 4.70067ZM94.3833 31.1308V8.51441H98.0091V31.1308H94.3833Z" fill="white"/>
<path d="M102.048 23.6807H105.762C105.894 26.3415 108.238 28.2927 111.996 28.2927C115.18 28.2927 117.435 26.918 117.435 24.8337C117.435 21.9956 114.959 21.7738 111.598 21.3747C106.558 20.7539 102.534 19.7339 102.534 15.0333C102.534 10.9091 106.292 8.20399 111.377 8.24834C116.506 8.29268 120.22 10.6874 120.574 15.388H116.86C116.595 13.082 114.472 11.3526 111.377 11.3526C108.238 11.3526 106.116 12.6829 106.116 14.7672C106.116 17.2506 108.503 17.561 111.775 17.9601C116.904 18.5809 121.016 19.5565 121.016 24.5676C121.016 28.7805 116.993 31.3969 111.996 31.3969C106.16 31.3969 102.136 28.6475 102.048 23.6807Z" fill="white"/>
<path d="M150.2 8.24834C154.887 8.24834 158.734 10.9534 158.734 18.0931V31.1308H155.108V18.3149C155.108 13.8803 153.163 11.5743 149.758 11.5743C146 11.5743 143.7 14.4124 143.7 19.0244V31.1308H140.075V18.3149C140.075 13.8803 138.085 11.5743 134.636 11.5743C130.922 11.5743 128.667 14.6785 128.667 19.2018V31.1308H125.041V8.51441H128.18L128.667 11.6186C129.861 9.97783 131.762 8.24834 135.255 8.24834C138.394 8.24834 141.092 9.66741 142.374 12.5499C143.745 10.1109 146.176 8.24834 150.2 8.24834Z" fill="white"/>
<path d="M173.517 31.3969C166.752 31.3969 162.33 26.7406 162.33 19.8226C162.33 12.949 166.663 8.24834 173.03 8.24834C179.397 8.24834 183.554 12.2838 183.731 18.98C183.731 19.4678 183.686 20 183.642 20.5322H166.133V20.8426C166.265 25.1441 168.962 28.1596 173.251 28.1596C176.435 28.1596 178.911 26.4745 179.663 23.5477H183.333C182.448 28.071 178.734 31.3969 173.517 31.3969ZM166.354 17.5166H179.84C179.486 13.6142 176.833 11.4412 173.074 11.4412C169.758 11.4412 166.707 13.8359 166.354 17.5166Z" fill="white"/>
<path d="M185.958 28.9135C185.958 27.4058 187.019 26.4302 188.478 26.4302C189.937 26.4302 190.998 27.4058 190.998 28.9135C190.998 30.4213 189.937 31.3969 188.478 31.3969C187.019 31.3969 185.958 30.4213 185.958 28.9135Z" fill="white"/>
<path d="M215.452 27.8049H216.602V31.1308H214.612C211.605 31.1308 210.589 29.8448 210.544 27.6275C209.129 29.6674 206.874 31.3969 202.983 31.3969C198.031 31.3969 194.671 28.9135 194.671 24.7894C194.671 20.2661 197.81 17.7384 203.735 17.7384H210.367V16.1863C210.367 13.2594 208.289 11.4856 204.752 11.4856C201.568 11.4856 199.446 12.9933 199.004 15.2993H195.378C195.909 10.8647 199.49 8.24834 204.929 8.24834C210.677 8.24834 213.993 11.1308 213.993 16.408V26.2971C213.993 27.4945 214.435 27.8049 215.452 27.8049ZM210.367 21.9069V20.7982H203.381C200.153 20.7982 198.341 21.9956 198.341 24.5676C198.341 26.7849 200.242 28.2927 203.249 28.2927C207.759 28.2927 210.367 25.6763 210.367 21.9069Z" fill="white"/>
<path d="M221.246 4.70067C219.92 4.70067 218.903 3.72506 218.903 2.35033C218.903 0.975611 219.92 0 221.246 0C222.573 0 223.59 0.975611 223.59 2.35033C223.59 3.72506 222.573 4.70067 221.246 4.70067ZM219.389 31.1308V8.51441H223.015V31.1308H219.389Z" fill="white"/>
<path d="M18.0127 2.28979C22.1574 2.28979 25.5174 5.65959 25.5174 9.81645H10.5081C10.5081 5.65959 13.868 2.28979 18.0127 2.28979Z" fill="white"/>
<path d="M9.00497 20.3538C9.00497 15.3655 13.0369 11.3218 18.0106 11.3218C22.9842 11.3218 27.0161 15.3655 27.0161 20.3538C27.0161 25.342 22.9842 29.3857 18.0106 29.3857C13.0369 29.3857 9.00497 25.342 9.00497 20.3538Z" fill="white"/>
<path d="M7.50465 12.8271C3.35995 12.8271 0 16.1969 0 20.3537C0 24.5106 3.35995 27.8804 7.50465 27.8804V12.8271Z" fill="white"/>
<path d="M36.0224 20.3537C36.0224 24.5106 32.6624 27.8804 28.5177 27.8804V12.8271C32.6624 12.8271 36.0224 16.1969 36.0224 20.3537Z" fill="white"/>
<path d="M10.5081 30.8914C10.5081 35.0483 13.868 38.4181 18.0127 38.4181C22.1574 38.4181 25.5174 35.0483 25.5174 30.8914H10.5081Z" fill="white"/>
<path d="M28.5177 5.30042C31.0046 5.30042 33.0205 7.32229 33.0205 9.8164H28.5177V5.30042Z" fill="white"/>
<path d="M28.5177 35.407C31.0046 35.407 33.0205 33.3852 33.0205 30.891H28.5177V35.407Z" fill="white"/>
<path d="M3.00281 9.81634C3.00281 7.32223 5.01877 5.30035 7.50559 5.30035V9.81634H3.00281Z" fill="white"/>
<path d="M3.00281 30.8914C3.00281 33.3856 5.01877 35.4074 7.50559 35.4074V30.8914H3.00281Z" fill="white"/>
</svg>
