<svg width="441" height="79" viewBox="0 0 441 79" fill="none" xmlns="http://www.w3.org/2000/svg">
<path d="M127.745 16.21C140.033 16.21 149.097 24.4892 149.097 38.9562C149.097 52.5516 140.033 61.7024 127.745 61.7024C120.25 61.7024 115.196 58.6522 112.494 54.3818V78.6096H105.348V16.7329H111.535L112.494 23.8792C115.457 19.7831 120.25 16.21 127.745 16.21ZM127.048 55.3404C135.85 55.3404 141.776 48.6299 141.776 38.9562C141.776 29.2825 135.85 22.5719 127.048 22.5719C118.333 22.5719 112.407 29.2825 112.407 38.7819C112.407 48.5427 118.333 55.3404 127.048 55.3404Z" fill="#36363A"/>
<path d="M177.831 16.7329H179.835V23.7049H176.262C166.937 23.7049 164.41 31.4613 164.41 38.5204V61.1795H157.263V16.7329H163.451L164.41 23.4434C166.501 20.0446 169.9 16.7329 177.831 16.7329Z" fill="#36363A"/>
<path d="M189.69 9.23793C187.075 9.23793 185.071 7.32062 185.071 4.61896C185.071 1.91731 187.075 0 189.69 0C192.305 0 194.309 1.91731 194.309 4.61896C194.309 7.32062 192.305 9.23793 189.69 9.23793ZM186.03 61.1795V16.7329H193.176V61.1795H186.03Z" fill="#36363A"/>
<path d="M201.136 46.5383H208.457C208.718 51.7673 213.337 55.6019 220.745 55.6019C227.02 55.6019 231.464 52.9002 231.464 48.8042C231.464 43.2265 226.584 42.7908 219.96 42.0064C210.025 40.7863 202.095 38.7819 202.095 29.544C202.095 21.439 209.502 16.1228 219.525 16.21C229.634 16.2971 236.955 21.0032 237.652 30.2412H230.331C229.808 25.7093 225.625 22.3105 219.525 22.3105C213.337 22.3105 209.154 24.925 209.154 29.021C209.154 33.9015 213.86 34.5115 220.309 35.2959C230.418 36.516 238.523 38.4333 238.523 48.2813C238.523 56.5605 230.593 61.7024 220.745 61.7024C209.241 61.7024 201.31 56.2991 201.136 46.5383Z" fill="#36363A"/>
<path d="M296.045 16.21C305.283 16.21 312.865 21.5261 312.865 35.5573V61.1795H305.718V35.9931C305.718 27.278 301.884 22.7462 295.173 22.7462C287.765 22.7462 283.234 28.3239 283.234 37.3875V61.1795H276.087V35.9931C276.087 27.278 272.166 22.7462 265.368 22.7462C258.047 22.7462 253.603 28.8468 253.603 37.7361V61.1795H246.456V16.7329H252.644L253.603 22.8334C255.956 19.6088 259.703 16.21 266.588 16.21C272.776 16.21 278.092 18.9988 280.619 24.6635C283.321 19.8703 288.114 16.21 296.045 16.21Z" fill="#36363A"/>
<path d="M342.001 61.7024C328.667 61.7024 319.952 52.5516 319.952 38.9562C319.952 25.4479 328.493 16.21 341.043 16.21C353.592 16.21 361.785 24.1406 362.133 37.3003C362.133 38.259 362.046 39.3048 361.959 40.3506H327.447V40.9606C327.709 49.4142 333.025 55.3404 341.479 55.3404C347.753 55.3404 352.634 52.0287 354.115 46.2768H361.349C359.606 55.1661 352.285 61.7024 342.001 61.7024ZM327.883 34.4244H354.464C353.767 26.7551 348.538 22.4848 341.13 22.4848C334.594 22.4848 328.58 27.1909 327.883 34.4244Z" fill="#36363A"/>
<path d="M366.523 56.822C366.523 53.8589 368.614 51.9416 371.49 51.9416C374.366 51.9416 376.458 53.8589 376.458 56.822C376.458 59.7851 374.366 61.7024 371.49 61.7024C368.614 61.7024 366.523 59.7851 366.523 56.822Z" fill="#36363A"/>
<path d="M424.657 54.6432H426.923V61.1795H423.001C417.075 61.1795 415.07 58.6522 414.983 54.2946C412.194 58.3036 407.75 61.7024 400.08 61.7024C390.32 61.7024 383.696 56.822 383.696 48.717C383.696 39.8277 389.884 34.8601 401.562 34.8601H414.634V31.8099C414.634 26.0579 410.538 22.5719 403.566 22.5719C397.292 22.5719 393.108 25.535 392.237 30.0669H385.091C386.136 21.3518 393.196 16.21 403.915 16.21C415.245 16.21 421.781 21.8747 421.781 32.2456V51.6801C421.781 54.0332 422.652 54.6432 424.657 54.6432ZM414.634 43.0522V40.8735H400.865C394.503 40.8735 390.93 43.2266 390.93 48.2813C390.93 52.6388 394.677 55.6019 400.603 55.6019C409.493 55.6019 414.634 50.46 414.634 43.0522Z" fill="#36363A"/>
<path d="M436.077 9.23793C433.462 9.23793 431.458 7.32062 431.458 4.61896C431.458 1.91731 433.462 0 436.077 0C438.691 0 440.696 1.91731 440.696 4.61896C440.696 7.32062 438.691 9.23793 436.077 9.23793ZM432.417 61.1795V16.7329H439.563V61.1795H432.417Z" fill="#36363A"/>
<path d="M35.5031 4.5C43.6723 4.5 50.2948 11.1225 50.2948 19.2917H20.7114C20.7114 11.1225 27.3339 4.5 35.5031 4.5Z" fill="#98C3F8"/>
<path d="M17.7488 40C17.7488 30.1969 25.6957 22.25 35.4988 22.25C45.3019 22.25 53.2488 30.1969 53.2488 40C53.2488 49.8031 45.3019 57.75 35.4988 57.75C25.6957 57.75 17.7488 49.8031 17.7488 40Z" fill="#255BE0"/>
<path d="M14.7917 25.2083C6.62246 25.2083 0 31.8307 0 39.9999C0 48.1692 6.62246 54.7917 14.7917 54.7917V25.2083Z" fill="#98C3F8"/>
<path d="M71.0001 39.9999C71.0001 48.1692 64.3776 54.7917 56.2084 54.7917V25.2083C64.3776 25.2083 71.0001 31.8307 71.0001 39.9999Z" fill="#2541A8"/>
<path d="M20.7114 60.7091C20.7114 68.8783 27.3339 75.5008 35.5031 75.5008C43.6723 75.5008 50.2948 68.8783 50.2948 60.7091H20.7114Z" fill="#2541A8"/>
<path d="M56.2084 10.4166C61.11 10.4166 65.0834 14.39 65.0834 19.2916H56.2084V10.4166Z" fill="#4480ED"/>
<path d="M56.2084 69.5832C61.11 69.5832 65.0834 65.6099 65.0834 60.7082H56.2084V69.5832Z" fill="#233B85"/>
<path d="M5.91855 19.2915C5.91855 14.39 9.89202 10.4165 14.7935 10.4165V19.2915H5.91855Z" fill="#C2DAFB"/>
<path d="M5.91855 60.7091C5.91855 65.6108 9.89202 69.5841 14.7935 69.5841V60.7091H5.91855Z" fill="#4480ED"/>
</svg>
