<svg width="32" height="32" viewBox="0 0 32 32" fill="none" xmlns="http://www.w3.org/2000/svg">
<path d="M 8.7 11.8 C 10.2 11.8 11.4 13 11.4 14.4 C 11.4 15.9 10.2 17.1 8.7 17.1 C 7.2 17.1 6 15.9 6 14.4 C 6 13 7.3 11.8 8.7 11.8 Z" fill="#333333"></path>
<path d="M 16.4 8.1 C 17.9 8.1 19.1 9 19.7 10.2 C 19.9 10.6 20 11.1 20 11.7 V 12 C 20.3 11.9 20.6 11.8 20.8 11.8 C 21.2 11.8 21.6 11.9 21.9 12 C 22.8 12.4 23.5 13.4 23.5 14.4 C 23.5 15.9 22.3 17.1 20.8 17.1 C 20.2 17.1 19.5 16.8 19 16.4 C 18.6 16 18.3 15.4 18.2 14.7 C 17.7 15 17.1 15.2 16.4 15.2 H 16.4 C 14.4 15.2 12.8 13.6 12.8 11.7 C 12.8 9.7 14.4 8.1 16.4 8.1 Z" fill="#333333"></path>
<path fill-rule="evenodd" clip-rule="evenodd" d="M 14.8 0 C 22.5 0 28.7 6 28.7 13.5 C 28.7 21 22.5 27 14.8 27 C 7.2 27 1 20.9 1 13.5 C 1 6.1 7.2 0 14.8 0 Z M 16.4 6.3 C 13.8 6.3 11.5 8.2 11 10.7 C 10.4 10.3 9.6 10 8.7 10 C 6.2 10 4.2 12 4.2 14.4 C 4.2 16.9 6.2 18.9 8.7 18.9 H 20.8 C 23.4 18.9 25.4 16.9 25.4 14.4 C 25.4 12.3 23.8 10.5 21.7 10.1 C 21 7.9 18.9 6.3 16.4 6.3 Z" fill="#333333"></path>
</svg>
