<svg width="82" height="48" viewBox="0 0 82 48" fill="none" xmlns="http://www.w3.org/2000/svg">
<path fill-rule="evenodd" clip-rule="evenodd" d="M75.2111 9.28494C75.4156 8.56914 76.073 8.05785 76.8326 8.04324C77.9136 8.02863 78.7317 9.00739 78.4979 10.0884C77.0955 16.9543 71.7781 33.5785 64.6347 32.9503C62.4434 32.7604 62.4726 29.9703 64.6347 30.1602C68.1991 30.4669 72.304 20.5187 72.5085 18.4589C72.5085 18.4589 71.1207 21.3222 68.8565 21.1176C67.7316 21.03 67.2788 20.1389 67.2642 18.8826C66.3584 20.0074 64.7808 21.103 63.4076 20.9862C57.5058 20.4895 65.555 4.28891 67.6002 0.92901C67.8777 0.330071 68.5205 -0.0643521 69.2071 0.00868924C70.0836 0.0963389 70.6241 0.739103 70.5364 1.6156C70.4897 2.0125 70.0419 2.84785 69.8266 3.24946L69.8265 3.24953L69.8265 3.24965L69.8264 3.24983C69.7724 3.3506 69.733 3.424 69.7184 3.45624C67.4249 8.1455 63.5098 17.0273 65.4673 17.2026C66.0225 17.2465 67.1765 16.3992 67.8485 15.5665C68.6665 12.864 69.8498 9.89849 71.0039 8.58375C71.2522 8.30619 71.6028 8.1455 71.968 8.13089C72.9468 8.08706 73.6334 9.06582 73.2682 9.97153C72.2164 12.5864 70.2004 17.6263 71.3107 17.7285C72.3624 17.8308 74.5245 11.7683 75.2111 9.28494ZM69.7476 23.2066C61.8299 23.3235 49.6758 23.8494 39.5961 25.2956C39.114 26.4058 38.5443 27.5599 37.9308 28.5971C46.4035 27.2969 53.7953 26.8002 59.0105 26.4935C60.7326 26.3941 63.7896 26.3448 66.0882 26.3077L66.0898 26.3077L66.0919 26.3077C66.8336 26.2957 67.4961 26.285 68.0092 26.2743C68.6373 25.3248 69.2217 24.2584 69.7476 23.2066ZM79.6666 23.3527C78.1035 23.2797 77.3877 23.2797 75.2549 23.3527C74.8312 24.4045 74.32 25.4709 73.7795 26.4497C76.4528 26.3182 77.6507 26.3036 79.5351 26.3766C80.3678 26.4059 81.069 25.7631 81.1128 24.9304C81.1566 24.0831 80.5139 23.3819 79.6666 23.3527ZM10.4526 36.0181C10.4526 36.0181 13.272 34.6303 14.3384 34.3381C18.7355 32.6582 24.8125 31.0074 31.2986 29.6781C31.517 29.3388 31.765 28.9862 32.0191 28.6251C32.5636 27.851 33.1359 27.0374 33.5044 26.2305C26.7846 27.5015 20.1963 29.0645 15.4486 30.7007L11.855 32.0592C11.4606 32.2199 11.0661 32.3806 10.7009 32.5559C7.57476 33.9291 5.10596 35.4191 3.36757 36.9676C1.32242 38.7937 0.168362 40.7804 0.00767107 42.8694V43.0301C-0.15302 45.9371 2.24274 47.8362 4.20025 47.9823C8.56812 48.3182 10.8908 43.8627 13.7687 35.872C12.4539 36.3687 10.5841 37.3328 9.73678 37.7857C7.1219 44.3156 6.31845 45.2797 4.68232 45.1483C3.77661 45.0752 2.92933 44.2133 3.01698 43.1761C3.22149 40.795 5.82176 38.297 10.4526 36.0181ZM57.2024 12.0444C56.8488 12.1503 56.3917 12.2872 55.8259 12.2358C54.8471 12.1481 54.2336 11.6807 53.9268 11.0963C53.7369 10.5412 53.6639 9.81082 54.1313 9.40179C54.4819 9.09501 54.891 9.21188 55.0809 9.29953C55.1247 9.31414 55.1539 9.32875 55.1831 9.34335C55.709 9.59169 56.2349 9.62091 56.6878 9.56248C56.79 9.54787 56.8923 9.53326 57.0092 9.50404C57.5643 9.38718 57.9587 9.15345 57.9587 9.15345L58.0967 9.09337C58.8358 8.771 59.6534 8.41445 60.3545 8.51068C61.5523 8.65676 61.7568 9.86925 61.6838 10.3951C61.53 11.5349 59.7408 13.2458 57.9635 14.9455L57.9635 14.9455L57.9635 14.9455L57.9634 14.9455C56.8704 15.9908 55.7818 17.0318 55.0809 17.933C55.1877 17.9039 55.3147 17.8582 55.4597 17.8061C55.9688 17.623 56.7002 17.36 57.5643 17.4509C58.4554 17.5386 58.9813 17.933 59.2734 18.4589L59.3173 18.5466C59.4049 18.7219 59.4633 18.9118 59.5072 19.1017C59.5218 19.1163 59.5218 19.1309 59.5218 19.1455C59.551 19.3792 59.551 19.6568 59.5218 19.9051C59.4487 20.2411 59.3027 20.5187 59.1274 20.7378C58.6895 21.0835 58.5243 20.9929 58.008 20.7098L58.008 20.7098C57.8698 20.634 57.7064 20.5444 57.5058 20.4456C56.6465 20.0226 55.7393 20.5208 55.5206 20.6409L55.5205 20.641C55.5072 20.6483 55.4965 20.6541 55.4885 20.6584C55.4826 20.6614 55.4782 20.6636 55.4753 20.6648C55.2953 20.7435 55.1093 20.8309 54.92 20.9199C54.1261 21.2931 53.2732 21.6941 52.5536 21.5997C51.5457 21.4682 50.9321 20.7086 50.9905 19.8905C51.1512 17.8162 54.5988 14.3248 57.5935 11.9436C57.4811 11.9609 57.3509 11.9999 57.2024 12.0444ZM46.4912 12.8493C47.057 12.9008 47.5142 12.7639 47.8677 12.6579C48.0162 12.6135 48.1465 12.5745 48.2588 12.5572C45.2641 14.9383 41.8166 18.4297 41.6559 20.5041C41.5974 21.3221 42.211 22.0818 43.2189 22.2133C43.9385 22.3076 44.7914 21.9067 45.5853 21.5335L45.5854 21.5334C45.7747 21.4445 45.9606 21.3571 46.1406 21.2783C46.1475 21.2755 46.1629 21.2671 46.1859 21.2545C46.4046 21.1344 47.3118 20.6361 48.1712 21.0592C48.3819 21.1614 48.5515 21.2538 48.6936 21.3312C49.2016 21.6081 49.3589 21.6938 49.7927 21.3514C49.968 21.1322 50.1141 20.8547 50.1871 20.5187C50.2163 20.2704 50.2163 19.9928 50.1871 19.7591C50.1871 19.7445 50.1871 19.7298 50.1725 19.7152C50.1287 19.5253 50.0702 19.3354 49.9826 19.1601L49.9388 19.0725C49.6466 18.5466 49.1207 18.1521 48.2296 18.0645C47.3655 17.9735 46.6342 18.2365 46.1251 18.4196L46.125 18.4196C45.98 18.4718 45.8531 18.5174 45.7462 18.5466C46.4471 17.6454 47.5357 16.6044 48.6287 15.5591L48.6288 15.5591C50.4061 13.8594 52.1953 12.1484 52.3491 11.0087C52.4222 10.4828 52.2176 9.27032 51.0198 9.12424C50.3187 9.02801 49.5011 9.38455 48.762 9.70693L48.624 9.767C48.624 9.767 48.2296 10.0007 47.6745 10.1176C47.5576 10.1468 47.4553 10.1614 47.3531 10.176C46.9002 10.2345 46.3743 10.2052 45.8484 9.95691C45.8192 9.9423 45.79 9.92769 45.7462 9.91308C45.5563 9.82543 45.1472 9.70857 44.7966 10.0153C44.3292 10.4244 44.4022 11.1548 44.5921 11.7099C44.9135 12.2942 45.5124 12.7763 46.4912 12.8493ZM9.4154 25.4564C9.91208 25.4125 10.4818 25.208 11.0953 24.8428C12.9506 23.5573 15.025 20.548 16.1644 18.7219C16.3105 18.4298 16.442 18.1376 16.5735 17.8454C17.7129 15.2598 18.3118 12.5426 18.2096 10.366C18.1365 8.61302 17.5814 7.3421 16.7634 6.9915C16.6173 6.91846 16.4566 6.88924 16.2813 6.87463C15.4778 6.83081 14.3968 7.29827 13.272 8.2332C12.1325 9.18274 11.0077 10.5413 10.0582 12.119C8.62655 14.6462 7.57475 17.6555 7.25337 20.1828C7.18033 20.7963 7.16572 21.3953 7.19494 21.9504C7.23877 23.119 7.50171 24.054 7.89614 24.6675C8.26134 25.1204 8.75803 25.3979 9.4154 25.4564ZM39.5523 10.9942C39.7422 10.2638 40.3995 9.73786 41.1592 9.70864C42.2548 9.66481 43.0729 10.629 42.8245 11.6808C41.4367 18.5613 36.1778 35.2877 29.0197 34.7618C26.8139 34.5865 26.8431 31.811 29.0051 31.9716C32.5695 32.2346 36.6452 22.2279 36.8351 20.1682C36.8351 20.1682 35.4473 23.046 33.1831 22.8853C32.3942 22.8269 31.9267 22.374 31.7222 21.6728C30.8896 22.8999 28.8152 24.5945 27.1352 24.463C23.264 24.1708 26.7262 16.7937 27.8364 14.5148C27.5297 14.7631 27.1352 14.8508 26.697 14.8361C26.6523 14.9434 26.6131 15.0507 26.5726 15.1613C26.547 15.2314 26.5208 15.3029 26.4925 15.3766L26.4825 15.403C25.0394 19.2076 23.5492 23.1362 20.5323 24.2293C19.8895 24.463 19.5389 24.536 18.8523 24.4776H18.531C18.1511 24.4484 17.8444 24.3607 17.523 24.2293C17.5157 24.2658 17.5047 24.3023 17.4938 24.3388C17.4828 24.3753 17.4719 24.4119 17.4646 24.4484C17.4646 24.4484 16.6757 27.0048 15.9015 29.386C15.3464 29.5613 13.7541 30.0872 12.3663 30.6569L13.5788 26.9902C13.5568 27.0048 13.5313 27.0231 13.5057 27.0414C13.4802 27.0596 13.4546 27.0779 13.4327 27.0925C11.855 28.2027 10.2919 28.7286 8.86028 28.6264C8.59733 28.6117 8.33438 28.5679 8.08604 28.5095C7.04886 28.3488 6.20158 27.7645 5.54421 26.9026C4.72614 25.8946 4.20024 24.5068 4.02494 22.7977C3.92269 21.965 3.89347 21.1031 3.96651 20.2412C4.03955 19.3939 4.18564 18.4736 4.41937 17.5095C4.74075 16.0778 5.22282 14.617 5.86559 13.1708C6.31844 12.1774 6.81512 11.2133 7.37024 10.3222C9.28392 7.12297 11.8696 4.47888 14.8205 3.82151C15.5363 3.64621 16.2375 3.60238 16.8948 3.70464C19.4805 4.01141 20.7514 6.17344 21.1751 8.26242C21.3065 8.84675 21.3942 9.48952 21.4234 10.1615C21.5403 12.5719 20.9998 15.362 19.9187 18.123C19.9041 18.1376 19.9041 18.1668 19.9041 18.1814C19.9041 18.1814 19.8895 18.2253 19.8457 18.3129C19.7435 18.5905 19.6266 18.8534 19.5097 19.1163L19.5097 19.1164C19.3198 19.54 19.1153 19.9636 18.9108 20.3727C18.7355 20.7963 18.5456 21.2784 18.3557 21.8043C18.5894 21.8627 18.8085 21.9065 19.0422 21.9358C20.9278 22.1206 22.1583 18.6356 23.1549 15.8132C23.3396 15.29 23.5163 14.7895 23.6877 14.3395C23.7169 14.2664 23.7461 14.1897 23.7753 14.113C23.8046 14.0363 23.8338 13.9596 23.863 13.8866C23.1033 13.1854 23.0303 12.1482 23.4101 11.2863C23.8338 10.6728 24.6226 10.3514 25.8059 11.3594C26.9164 12.3054 29.1978 11.2698 29.4862 11.1389C29.5051 11.1303 29.5155 11.1256 29.5164 11.1256C30.1299 10.965 30.7143 10.965 31.2255 11.5931C31.4885 11.9145 31.6784 12.4696 31.62 13.1562C31.5803 13.6021 31.055 14.6884 30.4521 15.9351C29.2775 18.3638 27.8086 21.401 29.0635 21.4975C29.7793 21.5559 31.1233 20.0221 31.8099 18.8534C32.4234 15.8295 33.855 11.9291 35.2136 10.3514C35.4619 10.0738 35.8125 9.89855 36.1778 9.88394C37.1565 9.82551 37.8577 10.775 37.4925 11.6954C36.4407 14.3395 34.5416 19.4085 35.6665 19.4962C36.7329 19.5838 38.8657 13.4922 39.5523 10.9942Z" fill="#5800B0"/>
</svg>
