<svg xmlns="http://www.w3.org/2000/svg" viewBox="-1 -1.5 36 35" fill="none">
  <style>
    .sonar-body { fill: #290042; }
    @media (prefers-color-scheme: dark) {
      .sonar-body { fill: #FFFFFF; }
    }
  </style>
  <path d="M27.0972 13.9165C27.0972 11.3172 26.6253 8.8218 25.6895 6.49438C25.5056 6.57436 25.3536 6.64635 25.2577 6.69433C24.8338 6.91028 24.5938 7.37417 24.6498 7.84605C24.7618 8.81381 24.8338 9.94152 24.8338 10.9573C24.8338 15.7081 23.2981 20.2669 20.5148 23.7941C17.8835 27.1292 14.3484 29.2647 10.5013 29.8805C10.5093 29.8805 10.5253 29.8965 10.5333 29.8965C12.7808 31.1762 15.5321 31.2562 17.8515 30.1205C23.2821 27.4491 27.1052 21.1867 27.1052 13.9085H27.0972V13.9165Z" fill="#D3121D"/>
  <path d="M28.1609 6.01446C27.801 6.00646 27.4651 6.03045 27.1532 6.07844C28.1209 8.54182 28.6168 11.1812 28.6168 13.9165C28.6168 22.0744 24.066 29.3286 17.4276 31.968C17.7635 31.992 18.0994 32 18.4434 32H18.4913C21.6905 32 24.7298 30.5283 26.7373 28.0409C29.2806 24.8897 30.8403 20.6588 30.8403 16.004C30.8403 12.4049 29.9205 8.95772 28.1689 6.01446H28.1609Z" fill="#D3121D"/>
  <path d="M34.4313 16.0041C34.4313 13.8286 33.9995 11.7571 33.2156 9.86961C32.8557 8.99783 32.3519 8.19803 31.68 7.53419C31.3041 7.16629 30.9042 6.85436 30.4723 6.63042C30.3604 6.57443 30.2484 6.51845 30.1364 6.47046C31.5841 9.35774 32.3519 12.6369 32.3519 16.0041C32.3519 20.7309 30.8162 25.2818 28.0809 28.7689C31.944 25.8496 34.4393 21.2188 34.4393 16.0041H34.4313Z" fill="#D3121D"/>
  <path class="sonar-body" d="M29.9127 4.85479C27.0014 1.86353 22.9384 0 18.4355 0C9.58976 0 2.34357 7.32617 2.43954 16.164C2.46354 18.3234 2.91143 20.3869 3.71123 22.2584C3.44729 22.2264 3.18336 22.2104 2.91942 22.2264C2.1996 22.2584 1.19186 22.0025 0.727972 21.8745C0.280084 21.7466 -0.14381 22.1145 0.048142 22.5464V22.5624C1.63974 26.2014 5.15886 28.5689 8.51802 28.5609C8.74197 28.5609 8.96591 28.5449 9.18986 28.5289C17.0599 27.929 23.3063 20.2829 23.3063 10.9733C23.3063 10.3894 23.2823 9.80555 23.2343 9.22169C23.2104 8.90177 22.8025 8.7898 22.6105 9.04574C20.435 11.925 17.2119 16.9958 13.1729 14.3564C11.6292 13.3407 10.7895 11.1652 11.2613 8.94176C12.1011 4.95876 16.748 2.34341 18.7875 3.15921C18.9474 3.22319 19.5233 3.45514 19.7152 3.97501C20.0112 4.77481 19.1154 5.43864 18.6515 6.85429C18.1556 8.3899 18.4355 10.0215 18.7875 10.0855C19.1714 10.1655 19.8272 8.74181 21.4348 7.43814C22.6025 6.50237 23.4823 6.23044 24.0341 5.23869C24.57 4.27893 23.6183 3.23919 23.9382 3.15121C24.2661 3.05524 24.562 4.18295 25.5218 4.73482C26.3216 5.1987 27.0414 4.91077 28.0971 4.87078C28.0971 4.87078 28.545 4.85479 29.2728 4.95876C29.2728 4.95876 29.4808 4.99075 29.8087 5.05474C29.9207 5.07873 30.0007 4.93477 29.9207 4.85479H29.9127ZM17.9877 17.1877C18.1076 17.0517 18.3316 16.7878 18.7155 16.7478C18.7875 16.7478 19.1714 16.7078 19.4273 16.9478C19.8032 17.3077 19.6992 18.0035 19.3633 18.4034C19.0514 18.7713 18.4435 19.0192 18.0117 18.7393C17.6517 18.5074 17.6357 18.0115 17.6357 17.9715C17.6357 17.5876 17.8597 17.3237 17.9797 17.1877H17.9797Z"/>
</svg>
